<?xml version="1.0" encoding="UTF-8"?>
<svg width="23px" height="23px" viewBox="0 0 23 23" version="1.1" xmlns="http://www.w3.org/2000/svg" xmlns:xlink="http://www.w3.org/1999/xlink">
    <defs>
        <path d="M29.539,7.9485 L28.867,7.2775 C28.497,6.9075 27.892,6.9075 27.522,7.2775 L26.851,7.9485 L28.867,9.9655 L29.539,9.2935 C29.909,8.9245 29.909,8.3205 29.539,7.9485 L29.539,7.9485 Z M26.835,9.3245 L26.163,8.6525 L15.95,18.8535 C15.95,18.8535 15.493,19.6605 15.323,20.2325 C15.071,21.0815 14.993,21.8085 14.993,21.8085 C14.993,21.8085 15.839,21.7845 16.68,21.5115 C17.216,21.3385 17.966,20.8705 17.966,20.8705 L28.18,10.6705 L27.507,9.9985 L26.835,9.3245 Z M24.986,27.3255 C24.986,27.5955 24.757,27.8255 24.486,27.8255 L9.5,27.8255 C9.229,27.8255 9,27.5955 9,27.3255 L9,12.3165 C9,12.0455 9.229,11.8165 9.5,11.8165 L20.581,11.8165 L22.489,9.8165 L9.5,9.8165 C8.122,9.8165 7,10.9375 7,12.3165 L7,27.3255 C7,28.7035 8.122,29.8255 9.5,29.8255 L24.486,29.8255 C25.865,29.8255 26.986,28.7035 26.986,27.3255 L26.986,14.3165 L24.986,16.2615 L24.986,27.3255 Z" id="path-1"></path>
    </defs>
    <g id="Symbols" stroke="none" stroke-width="1" fill="none" fill-rule="evenodd" opacity="0.9">
        <g id="ansatt" transform="translate(-7.000000, -7.000000)">
            <g id="Glyphs-/-Home-Screen-Quick-Actions-/-Compose">
                <g id="compose">
                    <use fill-opacity="0.3" fill="#000000" xlink:href="#path-1"></use>
                    <use fill-opacity="0.9" fill="#3C1345" xlink:href="#path-1"></use>
                </g>
            </g>
        </g>
    </g>
</svg>